<svg version="1.1"
   xmlns="http://www.w3.org/2000/svg" xmlns:xlink="http://www.w3.org/1999/xlink" xmlns:a="http://ns.adobe.com/AdobeSVGViewerExtensions/3.0/"
   x="0px" y="0px" width="269.3px" height="129px" viewBox="0 0 269.3 129" style="enable-background:new 0 0 269.3 129;"
   xml:space="preserve">
<defs>
</defs>
<g>
  <path d="M40.8,0C64,0,81.9,18.5,81.9,41.5C81.9,64.4,64,83,40.8,83C17.8,83,0,64.4,0,41.5C0,18.5,17.8,0,40.8,0z M40.8,72.4 c17,0,30-13.7,30-30.9s-13-31-30-31c-16.9,0-29.9,13.8-29.9,31S23.9,72.4,40.8,72.4z"/>
  <path d="M145.9,0.9v10.2h-36.3V37h28.8v10.2h-28.8v34.6H98.7V0.9H145.9z"/>
  <path d="M207.6,0.9v10.2h-36.3V37h28.8v10.2h-28.8v34.6h-10.9V0.9H207.6z"/>
  <path d="M269.3,0.9v10.2h-36.3V37h28.8v10.2h-28.8v34.6h-10.9V0.9H269.3z"/>
</g>
<g>
  <path d="M20.1,111.7c2.2,0.5,3.6,2.8,3.6,4.8c0,3.1-2.2,5.7-5.8,5.7H9.7v-19.8h7.5c3.3,0,5.4,2,5.4,5.1 C22.6,109.3,21.9,111,20.1,111.7z M17.2,110.7c1.8,0,2.6-1.4,2.6-3c0-1.7-1.1-2.7-2.9-2.7h-4.5v5.7H17.2z M12.4,113.1v6.7h5.3 c2,0,3.2-1.6,3.2-3.2c0-1.6-1.2-3.5-3.2-3.5H12.4z"/>
  <path d="M27.8,128.8l2.8-6.9l-5.4-13h2.8l4,9.7l4-9.7h2.8l-8.3,20H27.8z"/>
  <path d="M60.6,122.3l-9-14.9v14.9h-2.7v-19.8h2.6l8.9,14.8v-14.8h2.7v19.8H60.6z"/>
  <path d="M69.3,102.2c1,0,1.8,0.7,1.8,1.7s-0.8,1.7-1.8,1.7c-1,0-1.8-0.7-1.8-1.7S68.3,102.2,69.3,102.2z M70.6,108.9H68v13.4h2.6 V108.9z"/>
  <path d="M80.9,126.5c2.9,0,4.8-1.6,4.8-6.1c0-0.1,0-0.2,0-0.3c-0.8,1.6-2.8,2.5-4.7,2.5c-3.7,0-6.8-2.7-6.8-7c0-4.3,3.1-7,6.8-7 c1.9,0,3.8,0.8,4.7,2.4v-2.1h2.6v11.4c0,6.3-2.9,8.7-7.3,8.7c-2.5,0-4.8-1.3-6.1-3.6c0.3-0.1,1.8-1,2.2-1.1 C77.8,125.7,79.4,126.5,80.9,126.5z M81.1,111.1c-2.4,0-4.4,1.8-4.4,4.5c0,2.7,2,4.4,4.4,4.4c2.2,0,4.5-1.6,4.5-4.4 C85.6,112.7,83.5,111.1,81.1,111.1z"/>
  <path d="M95.1,122.3h-2.6v-20.7h2.6v9.3c0.8-1.6,3-2.3,4.4-2.3c3.4,0,5.5,2.2,5.4,6v7.8c-0.4,0-2.2,0-2.6,0v-7.6 c0-2.2-1.3-3.6-3.2-3.6s-4.1,1-4.1,3.9V122.3z"/>
  <path d="M115.7,108.9v2.2h-2.8v11.2h-2.6v-11.2h-2.4v-2.2h2.4v-5.1h2.6v5.1H115.7z"/>
  <path d="M144.4,114.4v2.2h-18.9v-2.2H144.4z"/>
  <path d="M158.1,117.2l-1.9,5h-2.8l7.5-19.8h2.9l7.5,19.8h-2.8l-1.9-5H158.1z M165.6,114.8l-3.3-8.8l-3.3,8.8H165.6z"/>
  <path d="M176.3,122.3h-2.6v-13.4h2.6v2c0.8-1.6,2.7-2.3,4.2-2.3c3.3,0,5.2,2.2,5.2,6v7.8c-0.4,0-2.2,0-2.6,0v-7.6 c0-2.2-1.1-3.6-3-3.6c-1.9,0-3.8,1.1-3.8,3.9V122.3z"/>
  <path d="M196.4,108.9v2.2h-2.8v11.2h-2.6v-11.2h-2.4v-2.2h2.4v-5.1h2.6v5.1H196.4z"/>
  <path d="M212.1,122.3l-3.7-9.9l-3.5,9.9h-2.1l-5.1-13.4h2.8l3.4,9.4l3.4-9.4h2.5l3.4,9.4l3.4-9.4h2.8l-5,13.4H212.1z"/>
  <path d="M234.4,116.6h-10.9c0.3,2.2,2.1,3.7,4.3,3.7c1.6,0,3.1-0.7,3.9-2.1c0.7,0.3,1.5,0.6,2.2,0.9c-1.2,2.4-3.6,3.6-6.2,3.6 c-3.8,0-6.9-2.8-6.9-7c0-4.3,3-7,6.9-7c3.8,0,6.7,2.7,6.7,7C234.4,115.8,234.4,116.3,234.4,116.6z M231.8,114.5 c-0.3-2.2-1.9-3.6-4.1-3.6c-2.2,0-3.9,1.4-4.3,3.6H231.8z"/>
  <path d="M240.4,122.3h-2.6v-13.4h2.6v3c0.7-2.4,2-3.3,3.7-3.3c0.9,0,2,0.3,2.3,0.5l-0.4,2.4c-0.7-0.3-1.4-0.5-2-0.5 c-2.6,0-3.7,2.8-3.7,6.3V122.3z"/>
  <path d="M251.7,111c0.9-1.5,2.8-2.4,4.7-2.4c3.7,0,6.7,2.8,6.7,7s-3,7-6.7,7c-1.9,0-3.8-0.7-4.7-2.3v8.5h-2.6v-20h2.6V111z M256.2,120c2.4,0,4.3-1.7,4.3-4.4c0-2.7-1.9-4.5-4.3-4.5c-2.4,0-4.4,1.7-4.4,4.5C251.8,118.5,254,120,256.2,120z"/>
</g>
</svg>